<svg width="1750" height="130" viewBox="0 0 1750 130" fill="none" xmlns="http://www.w3.org/2000/svg">
<g clip-path="url(#clip0_1_2)">
<rect width="1750" height="130" fill="white"/>
<rect width="1750" height="130" fill="#D9D9D9"/>
<path fill-rule="evenodd" clip-rule="evenodd" d="M49.8791 8.125C40.9534 8.125 33.7179 15.1309 33.7179 23.7731V34.6065H61.6892V37.6157H21.2862C12.3606 37.6157 5.125 44.6217 5.125 53.2638V76.7362C5.125 85.3783 12.3606 92.3841 21.2862 92.3841H30.61V79.1436C30.61 70.5014 37.8456 63.4952 46.7713 63.4952H76.6071C84.1597 63.4952 90.2819 57.5673 90.2819 50.2548V23.7731C90.2819 15.1309 83.0466 8.125 74.1209 8.125H49.8791ZM46.1497 27.3843C49.2393 27.3843 51.7438 24.9591 51.7438 21.9676C51.7438 18.9761 49.2393 16.5509 46.1497 16.5509C43.0598 16.5509 40.5553 18.9761 40.5553 21.9676C40.5553 24.9591 43.0598 27.3843 46.1497 27.3843Z" fill="url(#paint0_linear_1_2)"/>
<path fill-rule="evenodd" clip-rule="evenodd" d="M74.12 121.875C83.0458 121.875 90.2815 114.869 90.2815 106.227V95.3936H62.31V92.3845H102.713C111.639 92.3845 118.874 85.3783 118.874 76.7361V53.2638C118.874 44.6217 111.639 37.6158 102.713 37.6158H93.3893V50.8564C93.3893 59.499 86.1536 66.5047 77.2283 66.5047H47.392C39.8395 66.5047 33.7172 72.4327 33.7172 79.7452V106.227C33.7172 114.869 40.953 121.875 49.8783 121.875H74.12ZM77.8498 102.616C74.7599 102.616 72.2554 105.041 72.2554 108.032C72.2554 111.024 74.7599 113.449 77.8498 113.449C80.9394 113.449 83.4439 111.024 83.4439 108.032C83.4439 105.041 80.9394 102.616 77.8498 102.616Z" fill="url(#paint1_linear_1_2)"/>
<path d="M398 65V130H463H528V65V0H463H398V65Z" fill="#007ACC"/>
<path d="M426.748 65.4312L426.707 70.755H435.167H443.627V94.7947V118.834H449.611H455.595V94.7947V70.755H464.056H472.516V65.5344C472.516 62.6455 472.454 60.2312 472.372 60.1693C472.31 60.0868 462.013 60.0455 449.529 60.0661L426.81 60.128L426.748 65.4312Z" fill="white"/>
<path d="M502.897 59.9769C506.199 60.8023 508.716 62.2674 511.027 64.661C512.224 65.9404 513.999 68.2721 514.143 68.8293C514.184 68.9943 508.53 72.7912 505.105 74.9166C504.981 74.9991 504.486 74.4626 503.929 73.6372C502.257 71.2023 500.503 70.1499 497.821 69.9642C493.88 69.6959 491.342 71.7594 491.362 75.2055C491.362 76.2166 491.507 76.815 491.919 77.6404C492.786 79.4356 494.396 80.5086 499.451 82.6959C508.757 86.6991 512.74 89.3404 515.216 93.0959C517.981 97.2848 518.6 103.971 516.723 108.944C514.659 114.35 509.542 118.023 502.34 119.24C500.111 119.632 494.829 119.571 492.435 119.137C487.215 118.209 482.262 115.629 479.208 112.245C478.011 110.925 475.68 107.478 475.824 107.231C475.886 107.148 476.423 106.818 477.021 106.467C477.599 106.137 479.786 104.878 481.849 103.682L485.584 101.515L486.369 102.671C487.462 104.342 489.856 106.632 491.3 107.396C495.448 109.583 501.143 109.274 503.949 106.756C505.146 105.663 505.642 104.528 505.642 102.856C505.642 101.35 505.456 100.69 504.672 99.5547C503.661 98.1102 501.597 96.8928 495.737 94.3547C489.03 91.4658 486.142 89.6705 483.5 86.8229C481.973 85.1721 480.529 82.5309 479.93 80.3229C479.435 78.4864 479.311 73.8848 479.703 72.0277C481.086 65.5483 485.976 61.0293 493.034 59.688C495.324 59.2547 500.648 59.4198 502.897 59.9769Z" fill="white"/>
<g clip-path="url(#clip1_1_2)">
<path d="M372.886 45.1354C371.538 44.6137 370.14 44.1201 368.701 43.6532C368.938 42.5684 369.155 41.4977 369.348 40.4451C372.516 23.162 370.444 9.23853 363.372 4.65434C356.59 0.258708 345.499 4.84186 334.297 15.7986C333.22 16.8521 332.14 17.9676 331.06 19.1367C330.341 18.3632 329.622 17.6157 328.906 16.9008C317.167 5.18516 305.399 0.248045 298.334 4.8455C291.558 9.25387 289.552 22.3432 292.403 38.7226C292.679 40.3047 293.001 41.9203 293.365 43.563C291.699 44.0943 290.092 44.6608 288.553 45.2634C274.79 50.6567 266 59.1093 266 67.8769C266 76.9322 275.436 86.0147 289.772 91.5219C290.903 91.9565 292.077 92.3675 293.286 92.7576C292.894 94.5342 292.552 96.2752 292.266 97.9732C289.547 114.068 291.67 126.848 298.427 131.229C305.407 135.753 317.121 131.103 328.527 119.897C329.429 119.011 330.333 118.071 331.24 117.087C332.415 118.358 333.587 119.562 334.754 120.69C345.803 131.376 356.715 135.691 363.466 131.298C370.438 126.762 372.704 113.033 369.762 96.3293C369.538 95.0536 369.276 93.7503 368.983 92.4239C369.805 92.1505 370.613 91.8684 371.4 91.575C386.303 86.0251 396 77.0531 396 67.8769C396 59.0776 386.927 50.568 372.886 45.1354ZM369.654 85.6501C368.943 85.9146 368.213 86.1702 367.47 86.4181C365.825 80.5639 363.604 74.3389 360.887 67.9073C363.48 61.629 365.615 55.4835 367.214 49.6673C368.544 50.0999 369.835 50.556 371.078 51.0375C383.108 55.6921 390.446 62.5741 390.446 67.8769C390.446 73.5254 382.522 80.8578 369.654 85.6501ZM364.314 97.5415C365.615 104.928 365.801 111.605 364.939 116.826C364.165 121.517 362.608 124.644 360.683 125.897C356.586 128.562 347.825 125.097 338.376 115.959C337.293 114.911 336.202 113.792 335.107 112.609C338.77 108.106 342.431 102.871 346.004 97.0575C352.289 96.4307 358.226 95.406 363.611 94.007C363.876 95.2093 364.111 96.3886 364.314 97.5415ZM310.32 125.436C306.317 127.025 303.129 127.07 301.202 125.821C297.102 123.163 295.397 112.902 297.722 99.1374C297.988 97.561 298.306 95.9417 298.671 94.2866C303.996 95.6101 309.89 96.5626 316.19 97.1366C319.787 102.825 323.554 108.054 327.349 112.633C326.52 113.533 325.694 114.389 324.873 115.197C319.829 120.152 314.774 123.668 310.32 125.436ZM291.568 85.6155C285.229 83.1803 279.994 80.0154 276.406 76.5618C273.181 73.4583 271.553 70.3771 271.553 67.8769C271.553 62.5564 278.611 55.7701 290.381 51.1576C291.809 50.5979 293.305 50.0705 294.856 49.575C296.483 55.5225 298.617 61.7408 301.192 68.0288C298.583 74.4102 296.419 80.7275 294.776 86.7448C293.67 86.3874 292.599 86.0113 291.568 85.6155ZM297.854 37.5239C295.41 23.4904 297.033 12.9041 301.116 10.2476C305.465 7.4177 315.082 11.4526 325.219 21.5684C325.866 22.215 326.517 22.8917 327.169 23.5919C323.392 28.1503 319.66 33.34 316.095 38.9952C309.981 39.6321 304.128 40.6553 298.747 42.0254C298.409 40.4958 298.109 38.9931 297.854 37.5239ZM353.93 53.0869C352.643 50.5896 351.323 48.1513 349.977 45.7797C354.124 46.369 358.098 47.1513 361.83 48.1087C360.71 52.1446 359.313 56.3644 357.67 60.6904C356.49 58.1741 355.243 55.637 353.93 53.0869ZM331.062 28.0528C333.624 31.1719 336.189 34.6544 338.712 38.4329C336.169 38.2979 333.595 38.2277 331 38.2277C328.429 38.2277 325.874 38.2963 323.347 38.429C325.873 34.6856 328.46 31.2078 331.062 28.0528ZM308.048 53.1301C306.763 55.6344 305.539 58.1577 304.378 60.6857C302.761 56.3748 301.377 52.1358 300.247 48.0426C303.956 47.1097 307.912 46.3469 312.033 45.7687C310.668 48.1623 309.336 50.619 308.048 53.1301ZM312.152 90.4304C307.893 89.8964 303.879 89.1729 300.171 88.2657C301.319 84.0995 302.733 79.7699 304.384 75.3662C305.548 77.8924 306.777 80.4167 308.07 82.9265C309.387 85.4834 310.751 87.9879 312.152 90.4304ZM331.216 108.141C328.584 104.949 325.958 101.418 323.394 97.6203C325.883 97.7301 328.421 97.7862 331 97.7862C333.65 97.7862 336.269 97.7191 338.847 97.5901C336.316 101.456 333.76 104.993 331.216 108.141ZM357.723 75.1418C359.46 79.593 360.925 83.9 362.088 87.9952C358.319 88.9617 354.249 89.7401 349.961 90.3185C351.311 87.9149 352.643 85.4347 353.952 82.8836C355.276 80.3025 356.534 77.7176 357.723 75.1418ZM349.141 79.7652C347.109 83.7255 345.023 87.506 342.905 91.0746C339.047 91.3846 335.062 91.5443 331 91.5443C326.954 91.5443 323.019 91.4031 319.23 91.1266C317.027 87.5112 314.895 83.7195 312.876 79.7993C310.862 75.8898 309.009 71.9472 307.329 68.0267C309.008 64.0972 310.857 60.1502 312.859 56.2477L312.859 56.2484C314.866 52.3355 316.979 48.5623 319.162 44.9695C323.029 44.641 326.993 44.4696 331 44.4696C335.024 44.4696 338.994 44.6423 342.859 44.9737C345.009 48.5402 347.108 52.3012 349.123 56.2146C351.161 60.172 353.034 64.0927 354.727 67.938C353.039 71.8494 351.171 75.8096 349.141 79.7652ZM360.598 10.0619C364.951 12.8836 366.644 24.2631 363.909 39.1853C363.734 40.1375 363.538 41.1073 363.324 42.0901C357.931 40.6914 352.074 39.6506 345.943 39.004C342.37 33.2867 338.669 28.0889 334.953 23.589C335.952 22.5089 336.95 21.479 337.943 20.5071C347.541 11.1194 356.511 7.41302 360.598 10.0619ZM331 54.8294C337.411 54.8294 342.609 60.6708 342.609 67.8769C342.609 75.0827 337.411 80.9244 331 80.9244C324.589 80.9244 319.391 75.0827 319.391 67.8769C319.391 60.6708 324.589 54.8294 331 54.8294Z" fill="#00D8FF"/>
</g>
<g clip-path="url(#clip2_1_2)">
<path fill-rule="evenodd" clip-rule="evenodd" d="M587.74 25.7581H605.838L617.083 44.8336L628.44 25.7581H646.378L617.083 77.2686L587.74 25.7581Z" fill="#435466"/>
<path fill-rule="evenodd" clip-rule="evenodd" d="M568.431 25.7581L617.083 110.756L666.089 25.7581H646.378L617.083 77.2686L587.74 25.7581H568.431Z" fill="#4DBA87"/>
</g>
<path d="M747 9.125L694.049 28.0075L702.126 98.0206L747 122.875L791.874 98.0206L799.951 28.0075L747 9.125Z" fill="#DD0031"/>
<path d="M747 9.125V21.7512V21.6944V79.3087V122.875L791.874 98.0206L799.951 28.0075L747 9.125Z" fill="#C3002F"/>
<path d="M747 21.6944L713.899 95.9162H726.241L732.895 79.3087H760.991L767.646 95.9162H779.988L747 21.6944ZM756.669 69.0712H737.331L747 45.8094L756.669 69.0712Z" fill="white"/>
<g clip-path="url(#clip3_1_2)">
<path d="M886.667 87.6666C898.633 87.6666 908.333 77.9661 908.333 66C908.333 54.0338 898.633 44.3333 886.667 44.3333C874.7 44.3333 865 54.0338 865 66C865 77.9661 874.7 87.6666 886.667 87.6666Z" fill="#19BCFE"/>
<path fill-rule="evenodd" clip-rule="evenodd" d="M843.333 131C855.3 131 865 121.299 865 109.333C865 106.067 865 98.8446 865 87.6667C855.266 87.6667 848.044 87.6667 843.333 87.6667C831.367 87.6667 821.667 97.3672 821.667 109.333C821.667 121.299 831.367 131 843.333 131Z" fill="#09CF83"/>
<path fill-rule="evenodd" clip-rule="evenodd" d="M843.333 87.6666C847.322 87.6666 854.544 87.6666 865 87.6666V44.3333C854.544 44.3333 847.322 44.3333 843.333 44.3333C831.367 44.3333 821.667 54.0338 821.667 66C821.667 77.9661 831.367 87.6666 843.333 87.6666Z" fill="#A259FF"/>
<path fill-rule="evenodd" clip-rule="evenodd" d="M843.333 44.3333C847.322 44.3333 854.544 44.3333 865 44.3333V1C854.544 1 847.322 1 843.333 1C831.367 1 821.667 10.7005 821.667 22.6667C821.667 34.6328 831.367 44.3333 843.333 44.3333Z" fill="#F24E1E"/>
<path fill-rule="evenodd" clip-rule="evenodd" d="M886.667 44.3333H865V1H886.667C898.633 1 908.333 10.7005 908.333 22.6667C908.333 34.6328 898.633 44.3333 886.667 44.3333Z" fill="#FF7262"/>
</g>
<path d="M1000.27 104.633C999.826 104.633 999.415 104.516 999.034 104.311L995.131 101.992C994.544 101.669 994.837 101.552 995.014 101.493C995.806 101.229 995.953 101.17 996.774 100.701C996.862 100.642 996.98 100.672 997.068 100.73L1000.06 102.52C1000.18 102.579 1000.33 102.579 1000.41 102.52L1012.12 95.7417C1012.24 95.6831 1012.3 95.5655 1012.3 95.419V81.8909C1012.3 81.7439 1012.24 81.6268 1012.12 81.5679L1000.41 74.8186C1000.3 74.7596 1000.15 74.7596 1000.06 74.8186L988.352 81.5679C988.235 81.6265 988.176 81.7733 988.176 81.8906V95.4187C988.176 95.5363 988.235 95.6828 988.352 95.7417L991.551 97.5904C993.282 98.4707 994.368 97.4436 994.368 96.4166V83.0644C994.368 82.8885 994.515 82.7122 994.72 82.7122H996.217C996.393 82.7122 996.569 82.859 996.569 83.0644V96.4166C996.569 98.7347 995.307 100.085 993.106 100.085C992.431 100.085 991.903 100.085 990.406 99.351L987.325 97.5904C986.562 97.1504 986.093 96.3285 986.093 95.4482V81.9201C986.093 81.0398 986.562 80.2179 987.325 79.7779L999.034 72.9991C999.768 72.5882 1000.77 72.5882 1001.5 72.9991L1013.21 79.7779C1013.97 80.2179 1014.44 81.0398 1014.44 81.9201V95.4482C1014.44 96.3285 1013.97 97.1504 1013.21 97.5904L1001.5 104.369C1001.12 104.545 1000.68 104.633 1000.27 104.633ZM1003.88 95.3309C998.74 95.3309 997.684 92.9833 997.684 90.9878C997.684 90.8116 997.831 90.6356 998.036 90.6356H999.562C999.738 90.6356 999.885 90.753 999.885 90.9292C1000.12 92.4843 1000.79 93.2473 1003.91 93.2473C1006.37 93.2473 1007.43 92.6897 1007.43 91.3692C1007.43 90.6062 1007.13 90.0489 1003.29 89.6672C1000.09 89.3443 998.095 88.6402 998.095 86.0872C998.095 83.7101 1000.09 82.3014 1003.44 82.3014C1007.19 82.3014 1009.04 83.5928 1009.28 86.4096C1009.28 86.498 1009.25 86.5858 1009.19 86.6739C1009.13 86.7326 1009.04 86.7913 1008.95 86.7913H1007.43C1007.28 86.7913 1007.13 86.6739 1007.1 86.5272C1006.75 84.9134 1005.84 84.385 1003.44 84.385C1000.74 84.385 1000.41 85.3242 1000.41 86.0283C1000.41 86.8794 1000.79 87.1434 1004.43 87.6129C1008.04 88.0826 1009.75 88.7575 1009.75 91.2811C1009.72 93.8636 1007.6 95.3309 1003.88 95.3309Z" fill="#539E43"/>
<path d="M963.937 51.7238C963.937 51.1956 963.643 50.6964 963.174 50.4324L950.731 43.2722C950.526 43.1547 950.291 43.096 950.057 43.0666H949.939C949.704 43.0666 949.469 43.1547 949.264 43.2722L936.822 50.4324C936.352 50.6964 936.059 51.1954 936.059 51.7238L936.088 70.9742C936.088 71.2382 936.235 71.5023 936.469 71.6198C936.704 71.7666 936.998 71.7666 937.203 71.6198L944.598 67.3941C945.068 67.13 945.361 66.6311 945.361 66.103V57.0939C945.361 56.5657 945.655 56.0668 946.124 55.8028L949.264 53.9833C949.499 53.8365 949.763 53.7776 950.027 53.7776C950.291 53.7776 950.555 53.8365 950.761 53.9833L953.901 55.8028C954.37 56.0668 954.664 56.5655 954.664 57.0939V66.103C954.664 66.6311 954.957 67.13 955.427 67.3941L962.822 71.6198C963.057 71.7666 963.35 71.7666 963.585 71.6198C963.819 71.5023 963.966 71.2382 963.966 70.9742L963.937 51.7238ZM1023.74 25.2248C1023.51 25.1073 1023.21 25.1073 1023.01 25.2248C1022.77 25.3716 1022.63 25.6062 1022.63 25.8703V44.945C1022.63 45.1209 1022.54 45.2969 1022.36 45.4144C1022.19 45.5023 1022.01 45.5023 1021.84 45.4144L1018.72 43.6244C1018.5 43.4946 1018.24 43.4263 1017.98 43.4263C1017.71 43.4263 1017.46 43.4946 1017.23 43.6244L1004.79 50.814C1004.32 51.0781 1004.02 51.577 1004.02 52.1051V66.4549C1004.02 66.983 1004.32 67.4822 1004.79 67.7462L1017.23 74.9359C1017.46 75.0657 1017.71 75.134 1017.98 75.134C1018.24 75.134 1018.5 75.0657 1018.72 74.9359L1031.17 67.7462C1031.64 67.4822 1031.93 66.9833 1031.93 66.4549V30.683C1031.93 30.1255 1031.64 29.6268 1031.17 29.3625L1023.74 25.2248ZM1022.6 61.7305C1022.6 61.8772 1022.54 61.9945 1022.42 62.0532L1018.17 64.5181C1018.11 64.5471 1018.04 64.5621 1017.98 64.5621C1017.91 64.5621 1017.84 64.5471 1017.79 64.5181L1013.53 62.0532C1013.41 61.9945 1013.35 61.8478 1013.35 61.7305V56.8004C1013.35 56.6536 1013.41 56.5363 1013.53 56.4776L1017.79 54.0125C1017.84 53.9835 1017.91 53.9684 1017.98 53.9684C1018.04 53.9684 1018.11 53.9835 1018.17 54.0125L1022.42 56.4776C1022.54 56.536 1022.6 56.6831 1022.6 56.8004V61.7305ZM1065.15 56.6831C1065.62 56.419 1065.88 55.9201 1065.88 55.3917V51.8997C1065.88 51.3716 1065.59 50.8727 1065.15 50.6086L1052.79 43.4484C1052.57 43.3186 1052.31 43.2504 1052.05 43.2504C1051.78 43.2504 1051.53 43.3186 1051.3 43.4484L1038.86 50.6378C1038.39 50.9019 1038.09 51.4008 1038.09 51.9292V66.2789C1038.09 66.8071 1038.39 67.306 1038.86 67.57L1051.21 74.6129C1051.68 74.877 1052.24 74.877 1052.68 74.6129L1060.16 70.4463C1060.4 70.3287 1060.54 70.0647 1060.54 69.8006C1060.54 69.5365 1060.4 69.2725 1060.16 69.1549L1047.66 61.9653C1047.42 61.8188 1047.28 61.5839 1047.28 61.3199V56.8301C1047.28 56.566 1047.42 56.3019 1047.66 56.1844L1051.56 53.9541C1051.68 53.8822 1051.81 53.844 1051.94 53.844C1052.08 53.844 1052.21 53.8822 1052.33 53.9541L1056.23 56.1844C1056.46 56.3311 1056.61 56.5657 1056.61 56.8301V60.3515C1056.61 60.6155 1056.76 60.8796 1056.99 60.9969C1057.23 61.1437 1057.52 61.1437 1057.75 60.9969L1065.15 56.6831Z" fill="#333333"/>
<path d="M1051.86 56.0082C1051.9 55.9795 1051.95 55.9642 1052 55.9642C1052.05 55.9642 1052.11 55.9795 1052.15 56.0082L1054.53 57.3874C1054.61 57.4458 1054.67 57.5339 1054.67 57.6515V60.4099C1054.67 60.5272 1054.61 60.6153 1054.53 60.674L1052.15 62.0532C1052.11 62.0818 1052.05 62.0971 1052 62.0971C1051.95 62.0971 1051.9 62.0818 1051.86 62.0532L1049.48 60.674C1049.39 60.6153 1049.33 60.5272 1049.33 60.4099V57.6515C1049.33 57.5339 1049.39 57.4458 1049.48 57.3874L1051.86 56.0082Z" fill="#539E43"/>
<path d="M984.743 43.5071C984.515 43.3773 984.257 43.3091 983.994 43.3091C983.732 43.3091 983.474 43.3773 983.246 43.5071L970.892 50.6376C970.422 50.9016 970.158 51.4005 970.158 51.9287V66.22C970.158 66.7482 970.452 67.2471 970.892 67.5112L983.246 74.6421C983.474 74.7719 983.732 74.8402 983.994 74.8402C984.257 74.8402 984.515 74.7719 984.743 74.6421L997.097 67.5112C997.567 67.2471 997.831 66.7482 997.831 66.22V51.9289C997.831 51.4008 997.537 50.9019 997.097 50.6378L984.743 43.5071Z" fill="url(#paint2_linear_1_2)"/>
<mask id="mask0_1_2" style="mask-type:luminance" maskUnits="userSpaceOnUse" x="970" y="43" width="28" height="32">
<path d="M984.743 43.5071C984.515 43.3773 984.257 43.3091 983.994 43.3091C983.732 43.3091 983.474 43.3773 983.246 43.5071L970.892 50.6376C970.422 50.9016 970.158 51.4005 970.158 51.9287V66.22C970.158 66.7482 970.452 67.2471 970.892 67.5112L983.246 74.6421C983.474 74.7719 983.732 74.8402 983.994 74.8402C984.257 74.8402 984.515 74.7719 984.743 74.6421L997.097 67.5112C997.567 67.2471 997.831 66.7482 997.831 66.22V51.9289C997.831 51.4008 997.537 50.9019 997.097 50.6378L984.743 43.5071Z" fill="white"/>
</mask>
<g mask="url(#mask0_1_2)">
<path d="M997.126 50.6378L984.713 43.5071C984.591 43.4455 984.464 43.3964 984.332 43.3604L970.422 67.1889C970.537 67.3296 970.676 67.4488 970.833 67.5411L983.246 74.6721C983.598 74.8775 984.009 74.9361 984.39 74.8186L997.449 50.9316C997.361 50.8143 997.244 50.7257 997.126 50.6378Z" fill="url(#paint3_linear_1_2)"/>
</g>
<mask id="mask1_1_2" style="mask-type:luminance" maskUnits="userSpaceOnUse" x="970" y="43" width="28" height="32">
<path d="M984.743 43.5071C984.515 43.3773 984.257 43.3091 983.994 43.3091C983.732 43.3091 983.474 43.3773 983.246 43.5071L970.892 50.6376C970.422 50.9016 970.158 51.4005 970.158 51.9287V66.22C970.158 66.7482 970.452 67.2471 970.892 67.5112L983.246 74.6421C983.474 74.7719 983.732 74.8402 983.994 74.8402C984.257 74.8402 984.515 74.7719 984.743 74.6421L997.097 67.5112C997.567 67.2471 997.831 66.7482 997.831 66.22V51.9289C997.831 51.4008 997.537 50.9019 997.097 50.6378L984.743 43.5071Z" fill="white"/>
</mask>
<g mask="url(#mask1_1_2)">
<path fill-rule="evenodd" clip-rule="evenodd" d="M997.156 67.5114C997.508 67.306 997.772 66.9538 997.89 66.5725L984.273 43.3309C983.921 43.2723 983.539 43.3015 983.217 43.5069L970.892 50.6086L984.185 74.8478C984.378 74.8161 984.566 74.7569 984.742 74.6718L997.156 67.5117L997.156 67.5114Z" fill="url(#paint4_linear_1_2)"/>
<path fill-rule="evenodd" clip-rule="evenodd" d="M997.156 67.5114L984.772 74.6424C984.597 74.7315 984.409 74.791 984.215 74.8183L984.449 75.2586L998.183 67.3062V67.13L997.831 66.543C997.772 66.9538 997.508 67.306 997.156 67.5114Z" fill="url(#paint5_linear_1_2)"/>
<path fill-rule="evenodd" clip-rule="evenodd" d="M997.156 67.5114L984.772 74.6424C984.597 74.7315 984.409 74.791 984.215 74.8183L984.449 75.2586L998.183 67.3062V67.13L997.831 66.543C997.772 66.9538 997.508 67.306 997.156 67.5114Z" fill="url(#paint6_linear_1_2)"/>
</g>
<g clip-path="url(#clip4_1_2)">
<path fill-rule="evenodd" clip-rule="evenodd" d="M1202.04 59.8168C1201.92 59.8401 1201.81 60.0979 1201.81 60.2383C1201.78 61.1757 1201.76 63.6594 1201.76 65.3464C1201.76 65.3933 1201.83 65.487 1201.9 65.487C1202.25 65.5104 1203.09 65.5337 1203.82 65.5337C1204.83 65.5337 1205.41 65.3933 1205.74 65.2529C1206.59 64.8309 1206.98 63.9171 1206.98 62.9094C1206.98 60.6369 1205.39 59.7698 1203.02 59.7698C1202.86 59.7464 1202.39 59.7465 1202.04 59.8168ZM1208.09 70.2904C1208.09 67.9707 1206.38 66.6819 1203.28 66.6819C1203.14 66.6819 1202.16 66.6585 1201.92 66.7053C1201.85 66.7289 1201.76 66.7758 1201.76 66.8462C1201.76 68.5095 1201.74 71.1575 1201.81 72.1884C1201.85 72.6335 1202.18 73.2662 1202.58 73.4536C1203 73.6879 1203.96 73.7347 1204.62 73.7347C1206.47 73.7347 1208.09 72.7038 1208.09 70.2904ZM1197.26 58.5282C1197.49 58.5282 1198.2 58.5983 1200 58.5983C1201.71 58.5983 1203.07 58.5516 1204.74 58.5516C1206.77 58.5516 1209.59 59.2777 1209.59 62.3239C1209.59 63.8234 1208.53 65.0186 1207.15 65.6043C1207.08 65.6277 1207.08 65.6744 1207.15 65.6978C1209.12 66.1901 1210.85 67.4083 1210.85 69.7044C1210.85 71.954 1209.44 73.3832 1207.41 74.2737C1206.16 74.8125 1204.62 74.9999 1203.05 74.9999C1201.85 74.9999 1198.64 74.8595 1196.86 74.9064C1196.68 74.8358 1197.03 73.9924 1197.19 73.852C1197.61 73.8283 1197.94 73.805 1198.39 73.6643C1199.02 73.5006 1199.09 73.3129 1199.18 72.3524C1199.23 71.5323 1199.23 68.6266 1199.23 66.5648C1199.23 63.7297 1199.25 61.8084 1199.23 60.8713C1199.21 60.1451 1198.95 59.9105 1198.43 59.7698C1198.03 59.6997 1197.38 59.6058 1196.84 59.5357C1196.72 59.4184 1197.12 58.6216 1197.26 58.5282ZM1183.74 73.1022C1184.3 73.547 1185.4 73.7344 1186.39 73.7344C1187.65 73.7344 1188.92 73.5006 1190.14 72.3989C1191.38 71.2746 1192.25 69.5406 1192.25 66.7758C1192.25 64.1279 1191.24 61.9722 1189.18 60.7072C1188.01 59.9806 1186.51 59.6764 1184.77 59.6764C1184.26 59.6764 1183.76 59.6997 1183.46 59.8401C1183.39 59.8871 1183.23 60.0979 1183.23 60.2149C1183.18 60.6836 1183.18 64.2919 1183.18 66.4008C1183.18 68.5798 1183.18 71.626 1183.23 71.9774C1183.23 72.329 1183.39 72.8678 1183.74 73.1022H1183.74ZM1178.42 58.528C1178.87 58.528 1180.58 58.5983 1181.4 58.5983C1182.87 58.5983 1183.93 58.5282 1186.72 58.5282C1189.06 58.5282 1191.03 59.1607 1192.43 60.3556C1194.14 61.8318 1195.03 63.8704 1195.03 66.3539C1195.03 69.892 1193.42 71.9306 1191.8 73.1022C1190.18 74.2971 1188.08 74.9999 1185.08 74.9999C1183.48 74.9999 1180.74 74.9531 1178.47 74.9295H1178.45C1178.33 74.7188 1178.63 73.8987 1178.82 73.8753C1179.43 73.805 1179.59 73.7814 1179.9 73.6646C1180.39 73.4769 1180.48 73.2192 1180.55 72.3524C1180.62 70.7355 1180.6 68.7908 1180.6 66.5882C1180.6 65.0186 1180.62 61.9488 1180.58 60.9647C1180.51 60.1448 1180.16 59.9338 1179.45 59.7932C1179.1 59.7231 1178.63 59.6291 1177.98 59.5591C1177.88 59.3948 1178.31 58.6684 1178.42 58.528Z" fill="#8E714E"/>
<path fill-rule="evenodd" clip-rule="evenodd" d="M1150.07 74.0157C1149.49 73.9454 1149.06 73.852 1148.55 73.6176C1148.48 73.5706 1148.36 73.3365 1148.36 73.2426C1148.31 72.4225 1148.31 70.0794 1148.31 68.5098C1148.31 67.2443 1148.1 66.1431 1147.56 65.37C1146.93 64.4793 1146.02 63.9641 1144.85 63.9641C1143.81 63.9641 1142.43 64.6669 1141.28 65.651C1141.26 65.6744 1141.07 65.8387 1141.1 65.5807C1141.1 65.323 1141.14 64.8076 1141.17 64.4559C1141.19 64.1279 1141 63.9641 1141 63.9641C1140.25 64.3388 1138.14 64.8309 1137.37 64.901C1136.81 65.0186 1136.67 65.5573 1137.25 65.7447H1137.28C1137.91 65.9321 1138.33 66.1431 1138.66 66.3541C1138.89 66.5415 1138.87 66.7992 1138.87 67.0102C1138.89 68.7672 1138.89 71.4619 1138.82 72.9381C1138.8 73.5239 1138.64 73.7346 1138.21 73.8283L1138.26 73.805C1137.93 73.8753 1137.68 73.9454 1137.28 73.9924C1137.14 74.133 1137.14 74.8828 1137.28 75.0468C1137.54 75.0468 1138.89 74.9765 1140.02 74.9765C1141.57 74.9765 1142.36 75.0468 1142.76 75.0468C1142.92 74.8595 1142.97 74.1564 1142.88 73.9924C1142.43 73.969 1142.1 73.9223 1141.8 73.8283C1141.38 73.7344 1141.26 73.5239 1141.24 73.0318C1141.19 71.7897 1141.19 69.1656 1141.19 67.385C1141.19 66.8929 1141.33 66.6585 1141.47 66.5179C1142.01 66.0494 1142.88 65.7214 1143.65 65.7214C1144.4 65.7214 1144.89 65.9557 1145.27 66.2604C1145.78 66.6819 1145.95 67.2913 1146.02 67.7364C1146.13 68.7439 1146.09 70.7355 1146.09 72.4694C1146.09 73.4066 1146.02 73.641 1145.67 73.758C1145.5 73.8283 1145.08 73.9223 1144.59 73.9687C1144.42 74.133 1144.47 74.8595 1144.59 75.0235C1145.27 75.0235 1146.06 74.9531 1147.24 74.9531C1148.69 74.9531 1149.63 75.0235 1150 75.0235C1150.12 74.8828 1150.16 74.2034 1150.07 74.0157ZM1156.56 65.0655C1155.32 65.0655 1154.55 66.0261 1154.55 67.5254C1154.55 69.0486 1155.23 70.8058 1157.15 70.8058C1157.48 70.8058 1158.08 70.6652 1158.37 70.3371C1158.81 69.9156 1159.12 69.0719 1159.12 68.1815C1159.12 66.2368 1158.15 65.0655 1156.56 65.0655ZM1156.4 75.4216C1155.93 75.4216 1155.6 75.5623 1155.39 75.6796C1154.41 76.3118 1153.96 76.9212 1153.96 77.6479C1153.96 78.3271 1154.22 78.8658 1154.78 79.3345C1155.46 79.9203 1156.4 80.2016 1157.59 80.2016C1159.98 80.2016 1161.04 78.9128 1161.04 77.6479C1161.04 76.7571 1160.59 76.1714 1159.68 75.8436C1159.02 75.5623 1157.83 75.4216 1156.4 75.4216ZM1156.56 81.5138C1155.13 81.5138 1154.1 81.2091 1153.21 80.5297C1152.34 79.8736 1151.97 78.8895 1151.97 78.21C1151.97 78.0226 1152.02 77.5069 1152.44 77.0385C1152.7 76.7571 1153.26 76.2184 1154.59 75.3045C1154.64 75.2812 1154.66 75.2578 1154.66 75.2106C1154.66 75.1639 1154.62 75.1169 1154.57 75.0938C1153.47 74.6721 1153.14 73.9924 1153.05 73.6176V73.5706C1153.02 73.43 1152.98 73.2896 1153.19 73.1489C1153.35 73.0318 1153.59 72.8912 1153.84 72.7274C1154.24 72.4928 1154.66 72.2351 1154.92 72.0241C1154.97 71.9774 1154.97 71.9306 1154.97 71.8837C1154.97 71.8367 1154.92 71.7897 1154.87 71.7666C1153.23 71.2276 1152.41 70.0091 1152.41 68.1815C1152.41 66.9866 1152.95 65.9087 1153.91 65.2293C1154.57 64.7139 1156.21 64.0811 1157.29 64.0811H1157.36C1158.46 64.1045 1159.07 64.3388 1159.94 64.6435C1160.4 64.8076 1160.85 64.8776 1161.46 64.8776C1162.37 64.8776 1162.77 64.5966 1163.1 64.2688C1163.12 64.3155 1163.17 64.4328 1163.19 64.7372C1163.22 65.0419 1163.12 65.487 1162.89 65.8151C1162.7 66.0728 1162.28 66.2604 1161.86 66.2604H1161.74C1161.32 66.2134 1161.13 66.1665 1161.13 66.1665L1161.04 66.2134C1161.01 66.2604 1161.04 66.3071 1161.06 66.3775L1161.08 66.4244C1161.13 66.6352 1161.22 67.2677 1161.22 67.4319C1161.22 69.3532 1160.45 70.1965 1159.63 70.8292C1158.83 71.415 1157.92 71.7897 1156.89 71.8837C1156.87 71.8837 1156.77 71.8837 1156.56 71.907C1156.44 71.907 1156.28 71.9306 1156.26 71.9306H1156.23C1156.05 71.9774 1155.58 72.2117 1155.58 72.6098C1155.58 72.9612 1155.79 73.3832 1156.8 73.4536C1157.01 73.4769 1157.22 73.4769 1157.45 73.5005C1158.79 73.594 1160.45 73.7113 1161.22 73.969C1162.3 74.3671 1162.98 75.3279 1162.98 76.4761C1162.98 78.2103 1161.74 79.8269 1159.68 80.8341C1158.67 81.2795 1157.66 81.5138 1156.56 81.5138ZM1169.92 65.1826C1169.42 65.1826 1168.98 65.2994 1168.65 65.5337C1167.74 66.0961 1167.27 67.2209 1167.27 68.8609C1167.27 71.9306 1168.82 74.0863 1171.02 74.0863C1171.67 74.0863 1172.19 73.8987 1172.63 73.5239C1173.31 72.9612 1173.67 71.8367 1173.67 70.2668C1173.67 67.2209 1172.14 65.1823 1169.92 65.1823L1169.92 65.1826ZM1170.34 75.2109C1166.36 75.2109 1164.93 72.2821 1164.93 69.5406C1164.93 67.6193 1165.7 66.1431 1167.25 65.0886C1168.35 64.4092 1169.66 64.0344 1170.83 64.0344C1173.88 64.0344 1176.01 66.2134 1176.01 69.3532C1176.01 71.4853 1175.17 73.1722 1173.55 74.2034C1172.78 74.7188 1171.44 75.2109 1170.34 75.2109H1170.34ZM1128.58 65.1823C1128.09 65.1823 1127.65 65.2994 1127.32 65.5337C1126.41 66.0961 1125.94 67.2209 1125.94 68.8609C1125.94 71.9306 1127.48 74.0863 1129.69 74.0863C1130.34 74.0863 1130.86 73.8987 1131.3 73.5239C1131.98 72.9612 1132.33 71.8367 1132.33 70.2668C1132.33 67.2209 1130.83 65.1823 1128.58 65.1823ZM1129.01 75.2109C1125.02 75.2109 1123.59 72.2821 1123.59 69.5406C1123.59 67.6193 1124.37 66.1431 1125.91 65.0886C1127.01 64.4092 1128.33 64.0344 1129.5 64.0344C1132.54 64.0344 1134.68 66.2134 1134.68 69.3532C1134.68 71.4853 1133.83 73.1722 1132.22 74.2034C1131.47 74.7188 1130.13 75.2109 1129.01 75.2109ZM1102.23 74.9765C1102.18 74.9064 1102.13 74.6954 1102.15 74.4377C1102.15 74.2501 1102.2 74.133 1102.23 74.0863C1102.72 74.0157 1102.97 73.9454 1103.26 73.8753C1103.72 73.758 1103.91 73.5005 1103.94 72.9148C1104.01 71.5089 1104.01 68.8376 1103.98 66.9866V66.9396C1103.98 66.7289 1103.98 66.4709 1103.72 66.2835C1103.35 66.0494 1102.9 65.8387 1102.32 65.6741C1102.11 65.6043 1101.97 65.487 1101.99 65.3466C1101.99 65.2059 1102.13 65.0419 1102.44 64.9949C1103.21 64.9246 1105.22 64.4328 1106.02 64.0811C1106.07 64.1279 1106.14 64.2688 1106.14 64.4562L1106.11 64.7136C1106.09 64.9716 1106.07 65.2763 1106.07 65.5807C1106.07 65.6744 1106.16 65.7447 1106.26 65.7447C1106.3 65.7447 1106.35 65.7214 1106.4 65.6978C1107.9 64.5262 1109.25 64.1045 1109.96 64.1045C1111.11 64.1045 1112 64.6435 1112.68 65.7681C1112.72 65.8387 1112.77 65.862 1112.84 65.862C1112.89 65.862 1112.96 65.8387 1112.98 65.7917C1114.36 64.7372 1115.74 64.1045 1116.66 64.1045C1118.84 64.1045 1120.13 65.7214 1120.13 68.4628C1120.13 69.2359 1120.13 70.2434 1120.1 71.1575C1120.1 71.9774 1120.08 72.7271 1120.08 73.2662C1120.08 73.383 1120.24 73.758 1120.5 73.8283C1120.83 73.9924 1121.27 74.0627 1121.86 74.1564H1121.88C1121.93 74.3204 1121.84 74.9295 1121.74 75.0468C1121.6 75.0468 1121.39 75.0468 1121.16 75.0235C1120.56 74.9925 1119.97 74.9769 1119.38 74.9765C1117.92 74.9765 1117.17 74.9999 1116.45 75.0468C1116.4 74.8595 1116.38 74.2971 1116.45 74.1564C1116.87 74.0863 1117.08 74.0157 1117.34 73.9456C1117.81 73.805 1117.92 73.594 1117.95 72.9849C1117.95 72.5398 1118.04 68.7439 1117.9 67.8301C1117.76 66.8929 1117.06 65.7917 1115.51 65.7917C1114.92 65.7917 1114.01 66.0261 1113.12 66.7053C1113.07 66.7522 1113.03 66.8693 1113.03 66.9396V66.9632C1113.12 67.455 1113.12 68.0177 1113.12 68.8845V70.4075C1113.12 71.4619 1113.1 72.4461 1113.12 73.1956C1113.12 73.7113 1113.43 73.8283 1113.68 73.9223C1113.82 73.9454 1113.92 73.969 1114.03 73.9924C1114.24 74.0393 1114.46 74.0863 1114.78 74.1564C1114.83 74.2503 1114.83 74.5548 1114.76 74.8125C1114.74 74.9531 1114.69 75.0232 1114.67 75.0468C1113.87 75.0235 1113.05 74.9999 1111.86 74.9999C1111.5 74.9999 1110.89 75.0235 1110.38 75.0235C1109.96 75.0235 1109.56 75.0468 1109.32 75.0468C1109.3 74.9999 1109.25 74.8361 1109.25 74.5781C1109.25 74.3674 1109.3 74.2034 1109.35 74.1564C1109.47 74.133 1109.56 74.1097 1109.68 74.1097C1109.96 74.0627 1110.19 74.0157 1110.43 73.969C1110.82 73.852 1110.96 73.641 1110.99 73.1255C1111.06 71.954 1111.13 68.6035 1110.96 67.7597C1110.68 66.4008 1109.91 65.7214 1108.67 65.7214C1107.94 65.7214 1107.03 66.0728 1106.28 66.6354C1106.16 66.7289 1106.07 66.963 1106.07 67.174V68.5565C1106.07 70.2434 1106.07 72.3524 1106.09 73.2662C1106.11 73.547 1106.21 73.8753 1106.75 73.9924C1106.86 74.0157 1107.05 74.0627 1107.29 74.0863L1107.71 74.1564C1107.75 74.2971 1107.73 74.8595 1107.64 75.0468C1107.4 75.0468 1107.12 75.0235 1106.79 75.0235C1106.3 74.9999 1105.67 74.9765 1104.97 74.9765C1104.15 74.9765 1103.56 74.9999 1103.09 75.0235C1102.76 74.9765 1102.51 74.9765 1102.23 74.9765Z" fill="#442D22"/>
<path fill-rule="evenodd" clip-rule="evenodd" d="M1089.9 80.6L1088.94 80.2717C1088.94 80.2717 1089.06 75.3749 1087.3 75.0235C1086.13 73.6643 1087.49 17.3835 1091.7 74.8358C1091.7 74.8358 1090.25 75.562 1089.99 76.8041C1089.71 78.0226 1089.9 80.6 1089.9 80.6Z" fill="white"/>
<path fill-rule="evenodd" clip-rule="evenodd" d="M1089.9 80.6L1088.94 80.2717C1088.94 80.2717 1089.06 75.3749 1087.3 75.0235C1086.13 73.6643 1087.49 17.3835 1091.7 74.8358C1091.7 74.8358 1090.25 75.562 1089.99 76.8041C1089.71 78.0226 1089.9 80.6 1089.9 80.6Z" fill="#A6A385"/>
<path fill-rule="evenodd" clip-rule="evenodd" d="M1090.42 75.8669C1090.42 75.8669 1098.83 70.3371 1096.86 58.8324C1094.96 50.4679 1090.49 47.7265 1089.99 46.672C1089.46 45.9223 1088.94 44.6103 1088.94 44.6103L1089.29 67.8768C1089.29 67.9004 1088.56 74.9999 1090.42 75.8672" fill="white"/>
<path fill-rule="evenodd" clip-rule="evenodd" d="M1090.42 75.8669C1090.42 75.8669 1098.83 70.3371 1096.86 58.8324C1094.96 50.4679 1090.49 47.7265 1089.99 46.672C1089.46 45.9223 1088.94 44.6103 1088.94 44.6103L1089.29 67.8768C1089.29 67.9004 1088.56 74.9999 1090.42 75.8672" fill="#499D4A"/>
<path fill-rule="evenodd" clip-rule="evenodd" d="M1088.45 76.1714C1088.45 76.1714 1080.55 70.7822 1081.02 61.293C1081.47 51.8035 1087.04 47.1408 1088.12 46.2973C1088.82 45.5475 1088.85 45.2662 1088.89 44.5164C1089.38 45.5709 1089.29 60.2855 1089.36 62.0192C1089.57 68.6969 1088.99 74.9064 1088.45 76.1714Z" fill="white"/>
<path fill-rule="evenodd" clip-rule="evenodd" d="M1088.45 76.1714C1088.45 76.1714 1080.55 70.7822 1081.02 61.293C1081.47 51.8035 1087.04 47.1408 1088.12 46.2973C1088.82 45.5475 1088.85 45.2662 1088.89 44.5164C1089.38 45.5709 1089.29 60.2855 1089.36 62.0192C1089.57 68.6969 1088.99 74.9064 1088.45 76.1714Z" fill="#58AA50"/>
</g>
<path d="M1358.54 78.8452C1357.79 76.5563 1355.81 74.9618 1353.25 74.5789C1352.04 74.3987 1350.66 74.4756 1349.02 74.813C1346.17 75.4014 1344.05 75.6253 1342.51 75.6689C1348.34 65.8278 1353.07 54.6052 1355.8 44.0411C1360.22 26.9598 1357.86 19.1781 1355.1 15.658C1347.81 6.34172 1337.17 1.33656 1324.34 1.18314C1317.49 1.09958 1311.48 2.45131 1308.35 3.42311C1305.43 2.90839 1302.29 2.62075 1299 2.56748C1292.82 2.46907 1287.37 3.81469 1282.71 6.58045C1280.13 5.70822 1275.99 4.47818 1271.2 3.693C1259.96 1.84634 1250.89 3.28541 1244.26 7.96974C1236.23 13.6416 1232.51 23.4959 1233.2 37.2592C1233.42 41.6291 1235.86 54.9243 1239.71 67.5335C1241.92 74.7807 1244.28 80.7993 1246.72 85.4231C1250.18 91.9797 1253.88 95.841 1258.04 97.2273C1260.37 98.0038 1264.6 98.547 1269.05 94.8398C1269.62 95.5228 1270.37 96.202 1271.37 96.8326C1272.64 97.6329 1274.19 98.2868 1275.74 98.6743C1281.32 100.071 1286.56 99.7212 1291.02 97.7645C1291.05 98.5581 1291.07 99.3165 1291.08 99.9713C1291.11 101.034 1291.14 102.075 1291.18 103.049C1291.45 109.635 1291.9 114.756 1293.22 118.338C1293.3 118.536 1293.39 118.836 1293.5 119.154C1294.16 121.182 1295.27 124.577 1298.08 127.236C1301 129.989 1304.53 130.834 1307.76 130.834C1309.38 130.834 1310.93 130.621 1312.29 130.331C1317.12 129.294 1322.62 127.715 1326.59 122.059C1330.34 116.711 1332.17 108.656 1332.5 95.9647C1332.54 95.606 1332.58 95.2634 1332.62 94.9367C1332.65 94.7163 1332.67 94.491 1332.7 94.2662L1333.58 94.344L1333.81 94.3594C1338.74 94.5839 1344.76 93.5393 1348.46 91.8213C1351.38 90.4649 1360.75 85.5209 1358.54 78.8452Z" fill="black"/>
<path d="M1350.12 80.1437C1335.48 83.1645 1334.47 78.2062 1334.47 78.2062C1349.93 55.2626 1356.39 26.1391 1350.82 19.0113C1335.6 -0.432067 1309.26 8.76337 1308.82 9.0021L1308.68 9.02743C1305.78 8.42682 1302.54 8.06902 1298.91 8.00963C1292.28 7.90103 1287.25 9.74682 1283.44 12.6392C1283.44 12.6392 1236.45 -6.71966 1238.63 36.9867C1239.1 46.2849 1251.96 107.341 1267.3 88.8992C1272.91 82.1557 1278.33 76.4538 1278.33 76.4538C1281.02 78.2414 1284.24 79.1532 1287.61 78.8257L1287.88 78.603C1287.8 79.4403 1287.83 80.2592 1287.98 81.2287C1284.03 85.6443 1285.19 86.4196 1277.29 88.0459C1269.3 89.6934 1273.99 92.6266 1277.06 93.3931C1280.78 94.3227 1289.38 95.6395 1295.19 87.5052L1294.95 88.4334C1296.5 89.6736 1297.59 96.501 1297.41 102.69C1297.23 108.879 1297.1 113.128 1298.32 116.447C1299.54 119.766 1300.76 127.234 1311.15 125.008C1319.83 123.148 1324.32 118.329 1324.95 110.29C1325.39 104.575 1326.4 105.42 1326.46 100.31L1327.27 97.8908C1328.2 90.1435 1327.41 87.6441 1332.76 88.8066L1334.06 88.9207C1337.99 89.0998 1343.15 88.2878 1346.17 86.8828C1352.68 83.862 1356.54 78.8184 1350.12 80.1437H1350.12Z" fill="#336791"/>
<path d="M1286.19 41.1449C1284.87 40.9612 1283.67 41.1312 1283.07 41.5889C1282.73 41.8466 1282.62 42.145 1282.6 42.3505C1282.52 42.8946 1282.9 43.4961 1283.14 43.8065C1283.8 44.6848 1284.77 45.2886 1285.72 45.4217C1285.86 45.4409 1286 45.4502 1286.14 45.4502C1287.74 45.4502 1289.19 44.2059 1289.32 43.2874C1289.48 42.1371 1287.81 41.3703 1286.19 41.1449Z" fill="white"/>
<path d="M1329.91 41.1813C1329.78 40.2797 1328.18 40.0226 1326.66 40.2343C1325.13 40.4462 1323.66 41.1324 1323.78 42.0361C1323.88 42.7389 1325.15 43.9386 1326.65 43.9383C1326.78 43.9383 1326.91 43.9299 1327.04 43.9119C1328.04 43.773 1328.78 43.1363 1329.12 42.7692C1329.66 42.2102 1329.96 41.5866 1329.91 41.1813Z" fill="white"/>
<path d="M1354.99 79.8004C1354.44 78.1118 1352.64 77.5683 1349.65 78.1852C1340.79 80.015 1337.61 78.7474 1336.57 77.9797C1343.46 67.4808 1349.13 54.7906 1352.19 42.95C1353.64 37.3413 1354.44 32.1326 1354.5 27.8873C1354.57 23.2269 1353.78 19.8029 1352.14 17.7111C1345.54 9.2781 1335.86 4.75477 1324.13 4.63045C1316.07 4.53991 1309.26 6.60288 1307.94 7.18282C1305.16 6.49138 1302.13 6.0669 1298.83 6.01275C1292.78 5.91493 1287.55 7.36361 1283.22 10.3163C1281.34 9.6164 1276.48 7.94762 1270.53 6.99009C1260.25 5.335 1252.09 6.58891 1246.26 10.718C1239.3 15.6452 1236.09 24.4525 1236.72 36.895C1236.93 41.0815 1239.31 53.9592 1243.07 66.2921C1248.03 82.5243 1253.41 91.7136 1259.08 93.6036C1259.75 93.8249 1260.51 93.9798 1261.35 93.9798C1263.42 93.9798 1265.96 93.0478 1268.59 89.8777C1272.97 84.6082 1277.06 80.1926 1278.57 78.5881C1280.8 79.7841 1283.24 80.4517 1285.75 80.5186C1285.75 80.5842 1285.76 80.6497 1285.76 80.7149C1285.26 81.3105 1284.85 81.8325 1284.5 82.2783C1282.76 84.4798 1282.4 84.938 1276.82 86.0877C1275.23 86.4153 1271.02 87.2846 1270.95 90.241C1270.89 93.4712 1275.94 94.8278 1276.51 94.9717C1278.52 95.4739 1280.45 95.7216 1282.3 95.7216C1286.78 95.7213 1290.72 94.2482 1293.88 91.3977C1293.78 102.913 1294.26 114.261 1295.64 117.718C1296.77 120.549 1299.54 127.466 1308.28 127.465C1309.56 127.465 1310.97 127.316 1312.53 126.983C1321.65 125.028 1325.61 120.997 1327.14 112.111C1327.96 107.361 1329.37 96.02 1330.03 89.9368C1331.42 90.3723 1333.22 90.5718 1335.17 90.5715C1339.22 90.5715 1343.9 89.7103 1346.83 88.3487C1350.13 86.8185 1356.07 83.0629 1354.99 79.8004ZM1333.27 38.6924C1333.24 40.4884 1333 42.1188 1332.74 43.8207C1332.45 45.6511 1332.16 47.5435 1332.09 49.8408C1332.02 52.0764 1332.3 54.4008 1332.57 56.6484C1333.11 61.1883 1333.67 65.8624 1331.5 70.4746C1331.17 69.8763 1330.84 69.2236 1330.54 68.5007C1330.27 67.8477 1329.69 66.7987 1328.88 65.3468C1325.73 59.6959 1318.35 46.4628 1322.13 41.0628C1323.25 39.4552 1326.11 37.803 1333.27 38.6924ZM1324.59 8.26729C1335.09 8.49932 1343.4 12.4293 1349.29 19.9475C1353.8 25.7143 1348.83 51.9541 1334.44 74.5912C1334.3 74.4107 1334.16 74.2284 1334.01 74.0415C1333.95 73.9667 1333.89 73.8907 1333.83 73.8139C1337.54 67.6747 1336.82 61.6008 1336.17 56.2154C1335.9 54.0055 1335.65 51.918 1335.72 49.9575C1335.78 47.8788 1336.06 46.0968 1336.32 44.3733C1336.65 42.2492 1336.98 40.0517 1336.89 37.4609C1336.96 37.1893 1336.99 36.8682 1336.95 36.4871C1336.72 34.0026 1333.88 26.5679 1328.1 19.8378C1324.94 16.1573 1320.32 12.038 1314.03 9.25976C1316.74 8.69846 1320.44 8.175 1324.59 8.26729ZM1265.8 87.5574C1262.9 91.0504 1260.89 90.3811 1260.23 90.1613C1255.93 88.7271 1250.94 79.6412 1246.55 65.2327C1242.74 52.7655 1240.52 40.229 1240.34 36.7136C1239.78 25.5958 1242.48 17.8473 1248.35 13.6835C1257.91 6.9074 1273.62 10.9632 1279.93 13.0203C1279.84 13.1097 1279.74 13.1935 1279.65 13.2844C1269.29 23.7457 1269.54 41.6189 1269.57 42.7112C1269.56 43.1328 1269.6 43.7296 1269.65 44.5506C1269.83 47.5566 1270.16 53.1516 1269.27 59.4878C1268.45 65.3757 1270.26 71.1386 1274.25 75.2989C1274.66 75.7295 1275.09 76.1339 1275.54 76.5144C1273.76 78.4152 1269.91 82.6183 1265.8 87.5574ZM1276.87 72.7879C1273.66 69.4349 1272.2 64.7707 1272.87 59.9903C1273.8 53.2968 1273.46 47.4675 1273.27 44.3358C1273.24 43.8976 1273.22 43.5136 1273.21 43.2105C1274.72 41.869 1281.73 38.1113 1286.73 39.2572C1289.02 39.7801 1290.41 41.3339 1290.99 44.0071C1293.98 57.8455 1291.38 63.6134 1289.3 68.2483C1288.87 69.2032 1288.46 70.1057 1288.11 71.0396L1287.84 71.7614C1287.16 73.5865 1286.53 75.2832 1286.14 76.8946C1282.72 76.8841 1279.4 75.425 1276.87 72.7879ZM1277.4 91.451C1276.4 91.2018 1275.5 90.7689 1274.97 90.4099C1275.41 90.2029 1276.2 89.9217 1277.55 89.6422C1284.12 88.2899 1285.13 87.3358 1287.35 84.5235C1287.86 83.8789 1288.43 83.1479 1289.23 82.2576L1289.23 82.2564C1290.42 80.9271 1290.96 81.1524 1291.95 81.5609C1292.75 81.8913 1293.52 82.8917 1293.84 83.9927C1293.99 84.5127 1294.15 85.4999 1293.61 86.2677C1288.98 92.7459 1282.24 92.6627 1277.4 91.451ZM1311.77 123.435C1303.73 125.157 1300.89 121.057 1299.01 116.371C1297.8 113.345 1297.21 99.7017 1297.63 84.6353C1297.64 84.4347 1297.61 84.2411 1297.55 84.0591C1297.5 83.7077 1297.43 83.3522 1297.33 82.9944C1296.7 80.8022 1295.17 78.9684 1293.34 78.2082C1292.61 77.9063 1291.27 77.3523 1289.66 77.7634C1290.01 76.3511 1290.6 74.7565 1291.24 73.0295L1291.51 72.3029C1291.82 71.4839 1292.2 70.6356 1292.6 69.7377C1294.79 64.888 1297.78 58.2458 1294.53 43.2399C1293.32 37.6196 1289.26 34.8751 1283.11 35.5124C1279.42 35.8941 1276.04 37.3823 1274.36 38.2357C1274 38.4191 1273.67 38.5961 1273.36 38.7687C1273.83 33.1056 1275.6 22.5226 1282.24 15.8268C1286.42 11.6112 1291.99 9.52935 1298.77 9.64144C1312.14 9.86037 1320.71 16.7189 1325.54 22.4341C1329.71 27.3592 1331.97 32.3201 1332.87 34.9956C1326.09 34.3071 1321.49 35.6443 1319.15 38.9827C1314.07 46.2447 1321.93 60.3402 1325.71 67.1143C1326.4 68.356 1327 69.4288 1327.19 69.8847C1328.42 72.8659 1330.01 74.8561 1331.17 76.3092C1331.53 76.7543 1331.88 77.186 1332.14 77.5631C1330.09 78.1546 1326.4 79.5209 1326.74 86.3512C1326.47 89.7787 1324.54 105.825 1323.56 111.494C1322.27 118.984 1319.52 121.774 1311.77 123.435ZM1345.3 85.0571C1343.2 86.031 1339.69 86.7614 1336.36 86.918C1332.68 87.0907 1330.8 86.5055 1330.36 86.1457C1330.15 81.8893 1331.74 81.4444 1333.41 80.9737C1333.68 80.8994 1333.93 80.8275 1334.18 80.7408C1334.34 80.8663 1334.51 80.9909 1334.69 81.1128C1337.65 83.0669 1342.93 83.2777 1350.39 81.7391C1350.41 81.7333 1350.44 81.728 1350.47 81.7225C1349.46 82.6625 1347.74 83.9243 1345.3 85.0571Z" fill="white"/>
<g clip-path="url(#clip5_1_2)">
<path d="M1400.79 92.7188H1397.27C1397.15 86.7782 1396.81 81.1933 1396.25 75.96H1396.22L1390.86 92.7188H1388.18L1382.85 75.96H1382.82C1382.42 80.9845 1382.18 86.5708 1382.07 92.7188H1378.86C1379.07 85.2426 1379.59 78.2335 1380.42 71.6911H1384.78L1389.86 87.1421H1389.89L1395 71.6911H1399.17C1400.09 79.3543 1400.63 86.364 1400.79 92.7188ZM1416.06 77.2046C1414.62 84.9807 1412.73 90.6309 1410.39 94.1579C1408.56 96.8728 1406.56 98.2316 1404.37 98.2316C1403.79 98.2316 1403.08 98.0561 1402.23 97.7079V95.8329C1402.64 95.8928 1403.13 95.9268 1403.69 95.9268C1404.71 95.9268 1405.53 95.6466 1406.15 95.0848C1406.9 94.4007 1407.27 93.6315 1407.27 92.7807C1407.27 92.1972 1406.98 91.0043 1406.4 89.198L1402.54 77.2039H1405.99L1408.77 86.1743C1409.39 88.2112 1409.65 89.6332 1409.55 90.4432C1411.06 86.3946 1412.12 81.9802 1412.72 77.2032H1416.06V77.2046Z" fill="#5D87A1"/>
<path d="M1462.9 92.7188H1452.91V71.6911H1456.27V90.1304H1462.9V92.7188ZM1450.29 93.2268L1446.42 91.3192C1446.77 91.0376 1447.1 90.7329 1447.39 90.38C1449.03 88.4499 1449.85 85.5955 1449.85 81.8149C1449.85 74.8583 1447.12 71.3782 1441.66 71.3782C1438.98 71.3782 1436.89 72.261 1435.4 74.0272C1433.76 75.9586 1432.94 78.8028 1432.94 82.563C1432.94 86.2593 1433.66 88.9708 1435.12 90.6908C1436.45 92.2489 1438.45 93.0289 1441.13 93.0289C1442.13 93.0289 1443.05 92.9065 1443.89 92.6596L1448.92 95.5895L1450.29 93.2268ZM1437.77 88.5111C1436.92 87.1414 1436.49 84.942 1436.49 81.9094C1436.49 76.6149 1438.1 73.9646 1441.32 73.9646C1443 73.9646 1444.24 74.5985 1445.03 75.8634C1445.88 77.2352 1446.3 79.4149 1446.3 82.4052C1446.3 87.7433 1444.69 90.4126 1441.48 90.4126C1439.79 90.4133 1438.56 89.7815 1437.77 88.5111ZM1431.47 86.8904C1431.47 88.6736 1430.82 90.1365 1429.51 91.2824C1428.2 92.4236 1426.45 92.9956 1424.25 92.9956C1422.19 92.9956 1420.2 92.3386 1418.27 91.0315L1419.17 89.2259C1420.83 90.0576 1422.34 90.4711 1423.69 90.4711C1424.95 90.4711 1425.94 90.1902 1426.66 89.6332C1427.38 89.0742 1427.81 88.29 1427.81 87.2985C1427.81 86.0491 1426.94 84.9814 1425.34 84.0871C1423.86 83.2778 1420.92 81.5857 1420.92 81.5857C1419.32 80.4214 1418.52 79.1714 1418.52 77.1121C1418.52 75.4078 1419.12 74.0319 1420.31 72.9853C1421.5 71.9345 1423.05 71.4109 1424.94 71.4109C1426.89 71.4109 1428.66 71.9339 1430.26 72.969L1429.45 74.7753C1428.08 74.1945 1426.73 73.9041 1425.4 73.9041C1424.33 73.9041 1423.49 74.1632 1422.91 74.6835C1422.33 75.2017 1421.97 75.8648 1421.97 76.6782C1421.97 77.9214 1422.86 79.0027 1424.5 79.9147C1426 80.7254 1429.02 82.4467 1429.02 82.4467C1430.65 83.609 1431.47 84.8474 1431.47 86.8904Z" fill="#F8981D"/>
<path d="M1467.13 64.648C1465.09 64.5964 1463.52 64.8011 1462.2 65.3601C1461.82 65.5124 1461.21 65.5124 1461.16 65.9946C1461.36 66.1987 1461.39 66.5278 1461.56 66.8094C1461.87 67.3174 1462.4 68.0009 1462.89 68.3573C1463.42 68.7653 1463.95 69.1693 1464.51 69.525C1465.5 70.1364 1466.62 70.4921 1467.58 71.1014C1468.15 71.4558 1468.7 71.9141 1469.26 72.2957C1469.54 72.499 1469.72 72.8289 1470.08 72.956V72.8785C1469.9 72.65 1469.85 72.3195 1469.67 72.0651L1468.91 71.3293C1468.17 70.3391 1467.25 69.4747 1466.27 68.7646C1465.45 68.2042 1463.67 67.4425 1463.34 66.5054L1463.29 66.4537C1463.85 66.4013 1464.51 66.1987 1465.04 66.0429C1465.91 65.8151 1466.7 65.8668 1467.58 65.6389C1467.99 65.5369 1468.4 65.4091 1468.81 65.2833V65.0541C1468.35 64.5964 1468.02 63.9884 1467.53 63.5558C1466.24 62.4384 1464.82 61.3455 1463.34 60.4308C1462.55 59.9214 1461.54 59.5936 1460.7 59.1604C1460.4 59.0074 1459.89 58.9319 1459.71 58.6775C1459.25 58.1185 1459 57.3826 1458.67 56.7209C1457.93 55.3247 1457.22 53.7754 1456.58 52.299C1456.13 51.3088 1455.85 50.3199 1455.29 49.4038C1452.67 45.0852 1449.83 42.4696 1445.46 39.9023C1444.52 39.3677 1443.4 39.1399 1442.21 38.8597L1440.3 38.759C1439.89 38.5809 1439.49 38.0973 1439.13 37.8688C1437.68 36.9548 1433.95 34.9737 1432.88 37.5893C1432.19 39.2426 1433.9 40.868 1434.48 41.7066C1434.91 42.2887 1435.47 42.9511 1435.78 43.6122C1435.95 44.044 1436 44.5024 1436.18 44.9587C1436.59 46.0768 1436.97 47.3207 1437.5 48.364C1437.78 48.8958 1438.09 49.4548 1438.44 49.9363C1438.65 50.2179 1439 50.3423 1439.08 50.8014C1438.73 51.3074 1438.7 52.0711 1438.49 52.7063C1437.58 55.577 1437.94 59.1332 1439.23 61.2428C1439.64 61.878 1440.61 63.2763 1441.9 62.7404C1443.04 62.2834 1442.79 60.8355 1443.12 59.5657C1443.2 59.259 1443.15 59.0577 1443.3 58.8564V58.906C1443.65 59.6167 1444.01 60.3016 1444.34 61.0143C1445.13 62.2582 1446.5 63.5545 1447.64 64.4161C1448.25 64.8759 1448.73 65.6621 1449.5 65.9429V65.8668H1449.45C1449.29 65.6389 1449.07 65.5369 1448.86 65.3601C1448.4 64.9024 1447.9 64.3434 1447.54 63.836C1446.48 62.4126 1445.53 60.8368 1444.7 59.2107C1444.29 58.4218 1443.94 57.5595 1443.61 56.7719C1443.45 56.4679 1443.45 56.0095 1443.2 55.8565C1442.81 56.4149 1442.26 56.8984 1441.98 57.5826C1441.49 58.6769 1441.44 60.0228 1441.26 61.4224L1441.16 61.4713C1440.36 61.268 1440.07 60.4308 1439.77 59.7201C1439.01 57.9152 1438.88 55.018 1439.54 52.9355C1439.72 52.403 1440.48 50.7259 1440.17 50.2186C1440.02 49.7323 1439.51 49.4555 1439.23 49.0726C1438.91 48.5911 1438.55 47.9817 1438.32 47.4472C1437.71 46.0251 1437.4 44.4494 1436.75 43.028C1436.44 42.3656 1435.91 41.68 1435.48 41.07C1434.99 40.3845 1434.46 39.9016 1434.08 39.0889C1433.95 38.8094 1433.77 38.3523 1433.98 38.0483C1434.03 37.8443 1434.13 37.7682 1434.33 37.7171C1434.66 37.439 1435.6 37.7926 1435.93 37.9457C1436.87 38.3265 1437.66 38.6822 1438.45 39.2154C1438.8 39.4704 1439.18 39.9533 1439.64 40.0805H1440.17C1440.99 40.2573 1441.9 40.1294 1442.66 40.3593C1444.01 40.7918 1445.23 41.4264 1446.32 42.1112C1449.65 44.2215 1452.4 47.2201 1454.25 50.8014C1454.55 51.3849 1454.68 51.9195 1454.96 52.5282C1455.49 53.7741 1456.16 55.0445 1456.69 56.2639C1457.22 57.4575 1457.73 58.6762 1458.49 59.6677C1458.87 60.2009 1460.4 60.4805 1461.08 60.76C1461.59 60.9878 1462.38 61.1905 1462.84 61.47C1463.7 62.0025 1464.56 62.6139 1465.37 63.1995C1465.78 63.5041 1467.05 64.1393 1467.13 64.648ZM1441.21 42.5696C1440.86 42.5659 1440.51 42.6089 1440.17 42.6974V42.7485H1440.22C1440.43 43.1545 1440.78 43.436 1441.03 43.7904C1441.24 44.1977 1441.42 44.6017 1441.62 45.0084L1441.67 44.9581C1442.02 44.7044 1442.2 44.2977 1442.2 43.6877C1442.05 43.5081 1442.02 43.3327 1441.9 43.1545C1441.75 42.9001 1441.42 42.7736 1441.21 42.5696Z" fill="#5D87A1"/>
<path d="M1469.55 92.7154H1470.07V90.1392H1469.28L1468.64 91.8973L1467.94 90.1392H1467.18V92.7154H1467.68V90.7554H1467.7L1468.44 92.7154H1468.82L1469.55 90.7554V92.7154ZM1465.31 92.7154H1465.86V90.5758H1466.59V90.1385H1464.55V90.5758H1465.3L1465.31 92.7154Z" fill="#F8981D"/>
</g>
<path d="M1513.56 99.9375L1514.25 98.9747L1546.83 37.1678L1546.9 36.5138L1532.54 9.53875C1532.28 9.04547 1531.87 8.64735 1531.37 8.4007C1530.87 8.15405 1530.3 8.07138 1529.75 8.16436C1529.2 8.25735 1528.69 8.52129 1528.3 8.91885C1527.9 9.31641 1527.64 9.82746 1527.56 10.3797L1513.56 99.9375Z" fill="#FFC24A"/>
<path d="M1513.97 99.2063L1514.49 98.1906L1546.73 37.0256L1532.41 9.94501C1532.17 9.47406 1531.79 9.09232 1531.32 8.85699C1530.85 8.62166 1530.31 8.54541 1529.79 8.63966C1529.28 8.73391 1528.8 8.99359 1528.44 9.37979C1528.08 9.76599 1527.86 10.2579 1527.81 10.7819L1513.97 99.2063Z" fill="#FFA712"/>
<path d="M1557.37 56.9156L1568.06 45.9469L1557.37 25.549C1557.13 25.1101 1556.78 24.7431 1556.36 24.4873C1555.93 24.2315 1555.44 24.0964 1554.94 24.0964C1554.44 24.0964 1553.95 24.2315 1553.53 24.4873C1553.1 24.7431 1552.75 25.1101 1552.51 25.549L1546.8 36.4447V37.375L1557.37 56.9156Z" fill="#F4BD62"/>
<path d="M1557.18 56.4688L1567.58 45.825L1557.18 26C1557.01 25.5709 1556.72 25.2001 1556.34 24.9325C1555.97 24.6648 1555.52 24.5116 1555.06 24.4915C1554.6 24.4713 1554.14 24.5849 1553.75 24.8187C1553.35 25.0525 1553.03 25.3964 1552.82 25.8091L1547.07 36.8956L1546.9 37.4603L1557.18 56.4688Z" fill="#FFA50E"/>
<path d="M1513.57 99.9416L1513.88 99.6247L1515.02 99.1656L1556.7 57.6388L1557.23 56.2006L1546.83 36.3838L1513.57 99.9416Z" fill="#F6820C"/>
<path d="M1558.71 120.884L1596.44 99.8441L1585.66 33.4994C1585.58 33.0317 1585.37 32.5943 1585.06 32.2353C1584.75 31.8763 1584.35 31.6096 1583.9 31.4643C1583.45 31.3191 1582.97 31.301 1582.51 31.412C1582.05 31.5231 1581.62 31.7589 1581.29 32.0937L1513.56 99.9375L1551.07 120.88C1552.24 121.53 1553.55 121.872 1554.89 121.872C1556.22 121.872 1557.53 121.53 1558.7 120.88" fill="#FDE068"/>
<path d="M1595.69 99.6999L1584.99 33.8549C1584.97 33.4076 1584.82 32.9759 1584.56 32.6145C1584.29 32.2531 1583.93 31.9782 1583.51 31.8247C1583.09 31.6712 1582.63 31.6459 1582.2 31.752C1581.76 31.8581 1581.37 32.0909 1581.07 32.4208L1513.56 99.8421L1550.66 120.561C1551.81 121.206 1553.12 121.545 1554.44 121.545C1555.77 121.545 1557.07 121.206 1558.23 120.561L1595.69 99.6999Z" fill="#FCCA3F"/>
<path d="M1558.71 120.25C1557.54 120.901 1556.23 121.242 1554.89 121.242C1553.55 121.242 1552.24 120.901 1551.08 120.25L1513.87 99.6206L1513.56 99.9375L1551.07 120.88C1552.24 121.53 1553.55 121.872 1554.89 121.872C1556.22 121.872 1557.53 121.53 1558.7 120.88L1596.44 99.8441L1596.34 99.2753L1558.71 120.25Z" fill="#EEAB37"/>
<g clip-path="url(#clip6_1_2)">
<path d="M1723.29 -2.21918H1646.71C1632.94 -2.21918 1621.78 8.94304 1621.78 22.7123V99.2877C1621.78 113.057 1632.94 124.219 1646.71 124.219H1723.29C1737.06 124.219 1748.22 113.057 1748.22 99.2877V22.7123C1748.22 8.94304 1737.06 -2.21918 1723.29 -2.21918Z" fill="black" stroke="black" stroke-width="21.9178"/>
<path d="M1727.4 37.7214C1723.1 30.3649 1717.28 24.5408 1709.92 20.2477C1702.57 15.9543 1694.53 13.8082 1685.82 13.8082C1677.11 13.8082 1669.08 15.955 1661.72 20.2477C1654.36 24.5406 1648.54 30.3649 1644.25 37.7214C1639.95 45.0777 1637.81 53.1108 1637.81 61.8205C1637.81 72.2829 1640.86 81.6909 1646.97 90.047C1653.07 98.4037 1660.96 104.186 1670.63 107.395C1671.76 107.604 1672.59 107.457 1673.13 106.958C1673.67 106.459 1673.94 105.833 1673.94 105.083C1673.94 104.958 1673.93 103.834 1673.91 101.708C1673.89 99.5816 1673.88 97.7269 1673.88 96.1444L1672.44 96.3931C1671.52 96.5611 1670.37 96.6323 1668.97 96.6121C1667.58 96.5926 1666.13 96.4464 1664.63 96.1744C1663.13 95.9049 1661.73 95.2797 1660.44 94.3002C1659.15 93.3208 1658.23 92.0387 1657.69 90.456L1657.06 89.0174C1656.65 88.0596 1655.99 86.9956 1655.09 85.8294C1654.2 84.6621 1653.29 83.8707 1652.37 83.454L1651.94 83.1407C1651.64 82.9325 1651.37 82.6813 1651.12 82.3898C1650.87 82.0984 1650.69 81.8067 1650.56 81.5146C1650.44 81.2223 1650.54 80.9825 1650.87 80.7944C1651.21 80.6063 1651.81 80.515 1652.69 80.515L1653.94 80.7018C1654.77 80.8689 1655.8 81.3679 1657.03 82.202C1658.26 83.0354 1659.27 84.1188 1660.06 85.4519C1661.02 87.1612 1662.18 88.4636 1663.53 89.3599C1664.89 90.2561 1666.25 90.7035 1667.63 90.7035C1669 90.7035 1670.19 90.5992 1671.19 90.3919C1672.19 90.1834 1673.13 89.8701 1674 89.4536C1674.38 86.66 1675.4 84.5138 1677.07 83.0137C1674.69 82.7641 1672.56 82.3881 1670.66 81.8882C1668.76 81.3876 1666.8 80.5753 1664.78 79.4489C1662.76 78.324 1661.08 76.9272 1659.75 75.2609C1658.42 73.5936 1657.32 71.4048 1656.47 68.6964C1655.61 65.9869 1655.19 62.8613 1655.19 59.3188C1655.19 54.2748 1656.83 49.9826 1660.13 46.4397C1658.58 42.6476 1658.73 38.3965 1660.56 33.6869C1661.77 33.3114 1663.57 33.5932 1665.94 34.5306C1668.32 35.4685 1670.06 36.2718 1671.16 36.938C1672.27 37.6038 1673.15 38.1681 1673.82 38.6258C1677.69 37.5425 1681.7 37.0008 1685.82 37.0008C1689.95 37.0008 1693.95 37.5425 1697.83 38.6258L1700.2 37.126C1701.83 36.1254 1703.74 35.2083 1705.95 34.3747C1708.16 33.5415 1709.85 33.312 1711.02 33.6876C1712.89 38.3974 1713.06 42.6482 1711.52 46.4403C1714.81 49.9833 1716.46 54.2766 1716.46 59.3195C1716.46 62.862 1716.03 65.9974 1715.17 68.7277C1714.32 71.4585 1713.22 73.6451 1711.86 75.2922C1710.51 76.939 1708.82 78.3249 1706.8 79.4495C1704.78 80.575 1702.82 81.3874 1700.92 81.888C1699.02 82.3885 1696.89 82.7647 1694.51 83.0148C1696.68 84.8896 1697.76 87.849 1697.76 91.8916V105.082C1697.76 105.831 1698.02 106.457 1698.55 106.956C1699.07 107.455 1699.89 107.602 1701.01 107.393C1710.68 104.185 1718.57 98.402 1724.68 90.0452C1730.78 81.6891 1733.84 72.2811 1733.84 61.8188C1733.83 53.1102 1731.69 45.0777 1727.4 37.7214Z" fill="white"/>
</g>
<path d="M241.5 -2H150.5C139.73 -2 131 6.73045 131 17.5V108.5C131 119.27 139.73 128 150.5 128H241.5C252.27 128 261 119.27 261 108.5V17.5C261 6.73045 252.27 -2 241.5 -2Z" fill="#F7DF1E"/>
<path d="M213.266 95.9453C215.805 100.262 219.359 103.309 225.199 103.309C230.277 103.309 233.578 100.77 233.578 97.2148C233.578 93.1523 230.277 91.6289 224.691 89.0898L221.645 87.8203C212.758 84.0117 206.918 79.4414 206.918 69.5391C206.918 60.3984 213.773 53.2891 224.691 53.2891C232.562 53.2891 238.148 56.082 241.957 63.1914L232.562 69.2852C230.531 65.4766 228.246 63.9531 224.691 63.9531C221.137 63.9531 218.852 66.2383 218.852 69.2852C218.852 72.8398 221.137 74.3633 226.469 76.6484L229.516 77.918C239.926 82.4883 245.766 86.8047 245.766 97.2148C245.766 108.133 237.133 114.227 225.453 114.227C214.027 114.227 206.664 108.895 203.109 101.785L213.266 95.9453ZM170.102 96.9609C172.133 100.262 173.656 103.309 177.973 103.309C182.035 103.309 184.574 101.785 184.574 95.6914V53.543H196.762V95.1836C196.762 107.879 189.398 113.465 178.48 113.465C168.578 113.465 162.992 108.387 160.199 102.293L170.102 96.9609Z" fill="black"/>
</g>
<defs>
<linearGradient id="paint0_linear_1_2" x1="47.7037" y1="8.125" x2="47.7037" y2="92.3841" gradientUnits="userSpaceOnUse">
<stop stop-color="#327EBD"/>
<stop offset="1" stop-color="#1565A7"/>
</linearGradient>
<linearGradient id="paint1_linear_1_2" x1="76.2959" y1="37.6158" x2="76.2959" y2="121.875" gradientUnits="userSpaceOnUse">
<stop stop-color="#FFDA4B"/>
<stop offset="1" stop-color="#F9C600"/>
</linearGradient>
<linearGradient id="paint2_linear_1_2" x1="2857.12" y1="594.694" x2="1502.97" y2="2722.47" gradientUnits="userSpaceOnUse">
<stop stop-color="#41873F"/>
<stop offset="0.3288" stop-color="#418B3D"/>
<stop offset="0.6352" stop-color="#419637"/>
<stop offset="0.9319" stop-color="#3FA92D"/>
<stop offset="1" stop-color="#3FAE2A"/>
</linearGradient>
<linearGradient id="paint3_linear_1_2" x1="2140.08" y1="1782.19" x2="5531.49" y2="-60.3801" gradientUnits="userSpaceOnUse">
<stop offset="0.1376" stop-color="#41873F"/>
<stop offset="0.4032" stop-color="#54A044"/>
<stop offset="0.7136" stop-color="#66B848"/>
<stop offset="0.9081" stop-color="#6CC04A"/>
</linearGradient>
<linearGradient id="paint4_linear_1_2" x1="852.397" y1="1620.39" x2="3711.17" y2="1620.39" gradientUnits="userSpaceOnUse">
<stop offset="0.09192" stop-color="#6CC04A"/>
<stop offset="0.2864" stop-color="#66B848"/>
<stop offset="0.5968" stop-color="#54A044"/>
<stop offset="0.8624" stop-color="#41873F"/>
</linearGradient>
<linearGradient id="paint5_linear_1_2" x1="-466.557" y1="504.719" x2="2392.19" y2="504.719" gradientUnits="userSpaceOnUse">
<stop offset="0.09192" stop-color="#6CC04A"/>
<stop offset="0.2864" stop-color="#66B848"/>
<stop offset="0.5968" stop-color="#54A044"/>
<stop offset="0.8624" stop-color="#41873F"/>
</linearGradient>
<linearGradient id="paint6_linear_1_2" x1="2808.67" y1="-1773.05" x2="2084.44" y2="2021.91" gradientUnits="userSpaceOnUse">
<stop stop-color="#41873F"/>
<stop offset="0.3288" stop-color="#418B3D"/>
<stop offset="0.6352" stop-color="#419637"/>
<stop offset="0.9319" stop-color="#3FA92D"/>
<stop offset="1" stop-color="#3FAE2A"/>
</linearGradient>
<clipPath id="clip0_1_2">
<rect width="1750" height="130" fill="white"/>
</clipPath>
<clipPath id="clip1_1_2">
<rect width="130" height="130" fill="white" transform="translate(265 2)"/>
</clipPath>
<clipPath id="clip2_1_2">
<rect width="130" height="130" fill="white" transform="translate(552 3)"/>
</clipPath>
<clipPath id="clip3_1_2">
<rect width="130" height="130" fill="white" transform="translate(800 1)"/>
</clipPath>
<clipPath id="clip4_1_2">
<rect width="130" height="130" fill="white" transform="translate(1081 -2)"/>
</clipPath>
<clipPath id="clip5_1_2">
<rect width="130" height="130" fill="white" transform="translate(1361)"/>
</clipPath>
<clipPath id="clip6_1_2">
<rect width="130" height="130" fill="white" transform="translate(1620 -4)"/>
</clipPath>
</defs>
</svg>
